<svg width="307" height="89" viewBox="0 0 307 89" fill="none" xmlns="http://www.w3.org/2000/svg">
<path d="M33.528 18.2L35.4881 18.5976L35.9745 16.2H33.528V18.2ZM24.44 63V65H26.075L26.4001 63.3976L24.44 63ZM12.408 63L10.4479 63.3976L10.773 65H12.408V63ZM3.32001 18.2V16.2H0.873557L1.35993 18.5976L3.32001 18.2ZM12.536 18.2L14.5078 17.8653L14.2251 16.2H12.536V18.2ZM16.056 38.936L18.0303 38.6163L18.0291 38.6088L18.0278 38.6013L16.056 38.936ZM18.232 52.376L16.2577 52.6956L16.5298 54.376H18.232V52.376ZM18.616 52.376V54.376H20.3182L20.5903 52.6956L18.616 52.376ZM20.792 38.936L18.8202 38.6013L18.8189 38.6088L18.8177 38.6163L20.792 38.936ZM24.312 18.2V16.2H22.6229L22.3402 17.8653L24.312 18.2ZM36.947 63H34.947V65H36.947V63ZM36.947 18.2V16.2H34.947V18.2H36.947ZM45.715 18.2H47.715V16.2H45.715V18.2ZM45.715 63V65H47.715V63H45.715ZM60.5885 55.576H58.5885V57.576H60.5885V55.576ZM66.3485 55.576V57.576H67.3098L67.9102 56.8254L66.3485 55.576ZM69.1645 49.048L67.2259 48.5561L67.2225 48.5698L67.2192 48.5835L69.1645 49.048ZM66.4765 25.88L68.0235 24.6124L67.4233 23.88H66.4765V25.88ZM60.5885 25.88V23.88H58.5885V25.88H60.5885ZM51.8845 63H49.8845V65H51.8845V63ZM51.8845 18.2V16.2H49.8845V18.2H51.8845ZM70.4445 18.2L71.7719 16.704L71.2039 16.2H70.4445V18.2ZM71.0205 63V65H71.8917L72.485 64.3621L71.0205 63ZM99.0035 63V65H101.004V63H99.0035ZM89.6595 63H87.6595V65H89.6595V63ZM89.6595 48.088H91.6595V47.7787L91.5661 47.4838L89.6595 48.088ZM80.1875 18.2V16.2H77.4556L78.281 18.8042L80.1875 18.2ZM88.8915 18.2L90.8118 17.641L90.3924 16.2H88.8915V18.2ZM92.8595 31.832L94.831 31.4954L94.8117 31.3828L94.7798 31.273L92.8595 31.832ZM94.2035 39.704L92.232 40.0406L92.516 41.704H94.2035V39.704ZM94.4595 39.704V41.704H96.147L96.431 40.0406L94.4595 39.704ZM95.8035 31.832L93.8832 31.273L93.8513 31.3828L93.832 31.4954L95.8035 31.832ZM99.7715 18.2V16.2H98.2707L97.8512 17.641L99.7715 18.2ZM108.476 18.2L110.382 18.8042L111.207 16.2H108.476V18.2ZM99.0035 48.088L97.097 47.4838L97.0035 47.7787V48.088H99.0035ZM127.457 63L125.491 63.3718L125.799 65H127.457V63ZM126.113 55.896L128.078 55.5242L127.77 53.896H126.113V55.896ZM116.001 55.896V53.896H114.343L114.035 55.5242L116.001 55.896ZM114.657 63V65H116.314L116.622 63.3718L114.657 63ZM105.953 63L103.989 62.6213L103.53 65H105.953V63ZM114.593 18.2V16.2H112.941L112.629 17.8213L114.593 18.2ZM127.841 18.2L129.808 17.8402L129.508 16.2H127.841V18.2ZM136.033 63V65H138.431L138 62.6403L136.033 63ZM120.929 26.52V24.52H119.235L118.956 26.1898L120.929 26.52ZM118.433 41.432L120.399 41.7956L120.402 41.7789L120.405 41.7622L118.433 41.432ZM117.025 49.048L115.058 48.6844L114.621 51.048H117.025V49.048ZM125.025 49.048V51.048H127.448L126.988 48.6685L125.025 49.048ZM123.553 41.432L121.58 41.7622L121.584 41.7869L121.589 41.8115L123.553 41.432ZM121.057 26.52L123.029 26.1898L122.75 24.52H121.057V26.52ZM178.936 18.2L180.199 16.6491L179.647 16.2H178.936V18.2ZM185.592 27.992L183.707 28.6597L183.707 28.6597L185.592 27.992ZM185.656 52.952L187.536 53.6338L187.536 53.6338L185.656 52.952ZM178.936 63V65H179.714L180.287 64.4743L178.936 63ZM176.824 63V61H174.201L174.895 63.5291L176.824 63ZM178.808 70.232V72.232H181.431L180.737 69.7029L178.808 70.232ZM170.616 70.232L168.687 70.7611L169.091 72.232H170.616V70.232ZM168.632 63L170.561 62.4709L170.157 61H168.632V63ZM165.752 63L164.401 64.4743L164.974 65H165.752V63ZM159.096 27.992L157.211 27.3243L157.211 27.3243L159.096 27.992ZM165.752 18.2V16.2H165.041L164.489 16.6491L165.752 18.2ZM170.04 55.576L168.525 56.8819L169.124 57.576H170.04V55.576ZM174.648 55.576V57.576H175.564L176.163 56.8819L174.648 55.576ZM177.336 49.56L175.406 49.0338L175.404 49.0438L175.401 49.0539L177.336 49.56ZM177.4 31.896L175.465 32.4021L175.467 32.4094L177.4 31.896ZM174.712 25.88L176.227 24.5741L175.628 23.88H174.712V25.88ZM170.04 25.88V23.88H169.124L168.525 24.5741L170.04 25.88ZM167.288 31.896L165.361 31.3622L165.358 31.3724L165.355 31.3826L167.288 31.896ZM167.288 49.56L165.351 50.0589L165.356 50.0764L165.361 50.0938L167.288 49.56ZM203.832 55.576L202.357 56.9274L202.952 57.576H203.832V55.576ZM209.208 55.576V57.576H210.087L210.682 56.9275L209.208 55.576ZM211.192 52.504L209.335 51.7612L209.326 51.7814L209.319 51.8018L211.192 52.504ZM211.832 18.2V16.2H209.832V18.2H211.832ZM220.6 18.2H222.6V16.2H220.6V18.2ZM220.408 49.752L218.418 49.5462L218.415 49.5778L218.413 49.6095L220.408 49.752ZM219.64 54.168L217.696 53.6941L217.694 53.7042L217.692 53.7144L219.64 54.168ZM213.624 63V65H214.355L214.914 64.5283L213.624 63ZM199.416 63L198.149 64.5479L198.702 65H199.416V63ZM193.4 54.168L195.35 53.7259L195.346 53.7081L195.342 53.6904L193.4 54.168ZM192.44 18.2V16.2H190.44V18.2H192.44ZM201.208 18.2H203.208V16.2H201.208V18.2ZM201.784 52.504L199.902 53.1814L199.918 53.2278L199.937 53.2732L201.784 52.504ZM226.447 63H224.447V65H226.447V63ZM226.447 18.2V16.2H224.447V18.2H226.447ZM249.423 18.2H251.423V16.2H249.423V18.2ZM249.423 25.88V27.88H251.423V25.88H249.423ZM235.215 25.88V23.88H233.215V25.88H235.215ZM235.215 36.568H233.215V38.568H235.215V36.568ZM247.887 36.568H249.887V34.568H247.887V36.568ZM247.887 43.992V45.992H249.887V43.992H247.887ZM235.215 43.992V41.992H233.215V43.992H235.215ZM235.215 55.576H233.215V57.576H235.215V55.576ZM249.679 55.576H251.679V53.576H249.679V55.576ZM249.679 63V65H251.679V63H249.679ZM258.106 18.2V16.2H257.698L257.323 16.3595L258.106 18.2ZM273.466 18.2H275.466V16.2H273.466V18.2ZM273.466 25.88V27.88H275.466V25.88H273.466ZM261.178 25.88V23.88H259.941L259.389 24.9855L261.178 25.88ZM260.986 26.264L259.197 25.3695L258.728 26.3064L259.232 27.2251L260.986 26.264ZM271.225 44.952L269.472 45.9131L269.478 45.925L271.225 44.952ZM270.074 63V65H270.705L271.222 64.6373L270.074 63ZM253.114 63H251.114V65H253.114V63ZM253.114 55.576V53.576H251.114V55.576H253.114ZM266.362 55.576V57.576H267.598L268.15 56.4704L266.362 55.576ZM266.553 55.192L268.342 56.0864L268.815 55.1413L268.301 54.2184L266.553 55.192ZM255.034 34.52L253.286 35.4934L253.286 35.4936L255.034 34.52ZM286.054 25.88H288.054V23.88H286.054V25.88ZM276.39 25.88H274.39V27.88H276.39V25.88ZM276.39 18.2V16.2H274.39V18.2H276.39ZM304.422 18.2H306.422V16.2H304.422V18.2ZM304.422 25.88V27.88H306.422V25.88H304.422ZM294.758 25.88V23.88H292.758V25.88H294.758ZM294.758 63V65H296.758V63H294.758ZM286.054 63H284.054V65H286.054V63ZM99.25 2.875V0.875C98.1454 0.875 97.25 1.77043 97.25 2.875L99.25 2.875ZM143.5 86.125C143.5 87.2296 144.395 88.125 145.5 88.125C146.605 88.125 147.5 87.2296 147.5 86.125H143.5ZM131.625 72.25V70.25V72.25ZM99.25 72.25H97.25C97.25 73.3546 98.1454 74.25 99.25 74.25V72.25ZM191.75 2.875H193.75C193.75 1.77043 192.855 0.875 191.75 0.875V2.875ZM164 2.875V0.875V2.875ZM159.375 72.25V70.25V72.25ZM191.75 72.25V74.25C192.855 74.25 193.75 73.3546 193.75 72.25H191.75ZM31.5679 17.8024L22.4799 62.6024L26.4001 63.3976L35.4881 18.5976L31.5679 17.8024ZM24.44 61H12.408V65H24.44V61ZM14.3681 62.6024L5.28008 17.8024L1.35993 18.5976L10.4479 63.3976L14.3681 62.6024ZM3.32001 20.2H12.536V16.2H3.32001V20.2ZM10.5642 18.5347L14.0842 39.2707L18.0278 38.6013L14.5078 17.8653L10.5642 18.5347ZM14.0817 39.2556L16.2577 52.6956L20.2063 52.0564L18.0303 38.6163L14.0817 39.2556ZM18.232 54.376H18.616V50.376H18.232V54.376ZM20.5903 52.6956L22.7663 39.2556L18.8177 38.6163L16.6417 52.0564L20.5903 52.6956ZM22.7638 39.2707L26.2838 18.5347L22.3402 17.8653L18.8202 38.6013L22.7638 39.2707ZM24.312 20.2H33.528V16.2H24.312V20.2ZM38.947 63V18.2H34.947V63H38.947ZM36.947 20.2H45.715V16.2H36.947V20.2ZM43.715 18.2V63H47.715V18.2H43.715ZM45.715 61H36.947V65H45.715V61ZM60.5885 57.576H66.3485V53.576H60.5885V57.576ZM67.9102 56.8254C69.3612 55.0116 70.3919 52.5189 71.1098 49.5125L67.2192 48.5835C66.5718 51.2945 65.7251 53.1537 64.7868 54.3266L67.9102 56.8254ZM71.1031 49.5399C71.8673 46.528 72.2525 43.5255 72.2525 40.536H68.2525C68.2525 43.1785 67.9124 45.8506 67.2259 48.5561L71.1031 49.5399ZM72.2525 40.536C72.2525 33.6656 70.9762 28.2157 68.0235 24.6124L64.9296 27.1476C67.0115 29.6883 68.2525 34.0091 68.2525 40.536H72.2525ZM66.4765 23.88H60.5885V27.88H66.4765V23.88ZM58.5885 25.88V55.576H62.5885V25.88H58.5885ZM53.8845 63V18.2H49.8845V63H53.8845ZM51.8845 20.2H70.4445V16.2H51.8845V20.2ZM69.1171 19.696C74.6867 24.638 77.5325 31.3565 77.5325 40.088H81.5325C81.5325 30.3875 78.3197 22.514 71.7719 16.704L69.1171 19.696ZM77.5325 40.088C77.5325 48.8114 74.8505 55.9453 69.556 61.6379L72.485 64.3621C78.5398 57.852 81.5325 49.7113 81.5325 40.088H77.5325ZM71.0205 61H51.8845V65H71.0205V61ZM99.0035 61H89.6595V65H99.0035V61ZM91.6595 63V48.088H87.6595V63H91.6595ZM91.5661 47.4838L82.0941 17.5958L78.281 18.8042L87.753 48.6922L91.5661 47.4838ZM80.1875 20.2H88.8915V16.2H80.1875V20.2ZM86.9712 18.759L90.9392 32.391L94.7798 31.273L90.8118 17.641L86.9712 18.759ZM90.888 32.1686L92.232 40.0406L96.175 39.3674L94.831 31.4954L90.888 32.1686ZM94.2035 41.704H94.4595V37.704H94.2035V41.704ZM96.431 40.0406L97.775 32.1686L93.832 31.4954L92.488 39.3674L96.431 40.0406ZM97.7238 32.391L101.692 18.759L97.8512 17.641L93.8832 31.273L97.7238 32.391ZM99.7715 20.2H108.476V16.2H99.7715V20.2ZM106.569 17.5958L97.097 47.4838L100.91 48.6922L110.382 18.8042L106.569 17.5958ZM97.0035 48.088V63H101.004V48.088H97.0035ZM129.422 62.6282L128.078 55.5242L124.147 56.2678L125.491 63.3718L129.422 62.6282ZM126.113 53.896H116.001V57.896H126.113V53.896ZM114.035 55.5242L112.691 62.6282L116.622 63.3718L117.966 56.2678L114.035 55.5242ZM114.657 61H105.953V65H114.657V61ZM107.916 63.3787L116.556 18.5787L112.629 17.8213L103.989 62.6213L107.916 63.3787ZM114.593 20.2H127.841V16.2H114.593V20.2ZM125.873 18.5597L134.065 63.3597L138 62.6403L129.808 17.8402L125.873 18.5597ZM136.033 61H127.457V65H136.033V61ZM118.956 26.1898L116.46 41.1018L120.405 41.7622L122.901 26.8502L118.956 26.1898ZM116.466 41.0684L115.058 48.6844L118.991 49.4116L120.399 41.7956L116.466 41.0684ZM117.025 51.048H125.025V47.048H117.025V51.048ZM126.988 48.6685L125.516 41.0525L121.589 41.8115L123.061 49.4275L126.988 48.6685ZM125.525 41.1018L123.029 26.1898L119.084 26.8502L121.58 41.7622L125.525 41.1018ZM121.057 24.52H120.929V28.52H121.057V24.52ZM177.673 19.7509C180.34 21.9225 182.363 24.8642 183.707 28.6597L187.477 27.3243C185.92 22.9278 183.505 19.3415 180.199 16.6491L177.673 19.7509ZM183.707 28.6597C185.081 32.5409 185.768 36.5391 185.768 40.664H189.768C189.768 36.0849 189.004 31.6351 187.477 27.3243L183.707 28.6597ZM185.768 40.664C185.768 44.751 185.101 48.6155 183.776 52.2702L187.536 53.6338C189.027 49.5232 189.768 45.1956 189.768 40.664H185.768ZM183.776 52.2702C182.479 55.8471 180.421 58.9254 177.585 61.5257L180.287 64.4743C183.595 61.4426 186.017 57.8222 187.536 53.6338L183.776 52.2702ZM178.936 61H176.824V65H178.936V61ZM174.895 63.5291L176.879 70.7611L180.737 69.7029L178.753 62.4709L174.895 63.5291ZM178.808 68.232H170.616V72.232H178.808V68.232ZM172.545 69.7029L170.561 62.4709L166.703 63.5291L168.687 70.7611L172.545 69.7029ZM168.632 61H165.752V65H168.632V61ZM167.103 61.5257C164.267 58.9254 162.209 55.8471 160.912 52.2702L157.152 53.6338C158.671 57.8222 161.093 61.4426 164.401 64.4743L167.103 61.5257ZM160.912 52.2702C159.587 48.6155 158.92 44.751 158.92 40.664H154.92C154.92 45.1956 155.661 49.5232 157.152 53.6338L160.912 52.2702ZM158.92 40.664C158.92 36.5391 159.607 32.5409 160.981 28.6597L157.211 27.3243C155.684 31.6351 154.92 36.0849 154.92 40.664H158.92ZM160.981 28.6597C162.326 24.8642 164.348 21.9225 167.015 19.7509L164.489 16.6491C161.183 19.3415 158.768 22.9278 157.211 27.3243L160.981 28.6597ZM165.752 20.2H178.936V16.2H165.752V20.2ZM170.04 57.576H174.648V53.576H170.04V57.576ZM176.163 56.8819C177.527 55.3 178.518 52.9437 179.271 50.0661L175.401 49.0539C174.703 51.723 173.903 53.3773 173.133 54.2701L176.163 56.8819ZM179.266 50.0862C180.083 47.0876 180.488 43.9445 180.488 40.664H176.488C176.488 43.6128 176.125 46.4004 175.406 49.0338L179.266 50.0862ZM180.488 40.664C180.488 37.3935 180.107 34.2969 179.333 31.3826L175.467 32.4094C176.144 34.9565 176.488 37.7051 176.488 40.664H180.488ZM179.335 31.3899C178.582 28.5123 177.59 26.156 176.227 24.5741L173.197 27.1859C173.967 28.0787 174.767 29.733 175.465 32.4021L179.335 31.3899ZM174.712 23.88H170.04V27.88H174.712V23.88ZM168.525 24.5741C167.171 26.1454 166.156 28.4892 165.361 31.3622L169.215 32.4298C169.956 29.7561 170.776 28.0893 171.555 27.1859L168.525 24.5741ZM165.355 31.3826C164.581 34.2969 164.2 37.3935 164.2 40.664H168.2C168.2 37.7051 168.544 34.9565 169.221 32.4094L165.355 31.3826ZM164.2 40.664C164.2 43.9351 164.581 47.0688 165.351 50.0589L169.225 49.0611C168.544 46.4192 168.2 43.6223 168.2 40.664H164.2ZM165.361 50.0938C166.156 52.9668 167.171 55.3106 168.525 56.8819L171.555 54.2701C170.776 53.3667 169.956 51.6999 169.215 49.0262L165.361 50.0938ZM203.832 57.576H209.208V53.576H203.832V57.576ZM210.682 56.9275C211.749 55.7635 212.569 54.5254 213.064 53.2062L209.319 51.8018C209.046 52.5306 208.544 53.3405 207.733 54.2246L210.682 56.9275ZM213.048 53.2468C213.617 51.8267 213.832 49.9669 213.832 47.832H209.832C209.832 49.7931 209.62 51.048 209.335 51.7612L213.048 53.2468ZM213.832 47.832V18.2H209.832V47.832H213.832ZM211.832 20.2H220.6V16.2H211.832V20.2ZM218.6 18.2V44.632H222.6V18.2H218.6ZM218.6 44.632C218.6 46.7819 218.536 48.4095 218.418 49.5462L222.397 49.9578C222.535 48.6198 222.6 46.8341 222.6 44.632H218.6ZM218.413 49.6095C218.338 50.6518 218.108 52.0052 217.696 53.6941L221.583 54.6419C222.024 52.8322 222.306 51.2415 222.402 49.8945L218.413 49.6095ZM217.692 53.7144C217.093 56.2858 215.402 58.8816 212.333 61.4717L214.914 64.5283C218.416 61.5717 220.736 58.2795 221.587 54.6216L217.692 53.7144ZM213.624 61H199.416V65H213.624V61ZM200.682 61.4521C197.639 58.9627 195.951 56.3782 195.35 53.7259L191.449 54.6101C192.298 58.3578 194.621 61.6613 198.149 64.5479L200.682 61.4521ZM195.342 53.6904C194.752 51.2924 194.44 48.2846 194.44 44.632H190.44C190.44 48.4887 190.767 51.8383 191.457 54.6456L195.342 53.6904ZM194.44 44.632V18.2H190.44V44.632H194.44ZM192.44 20.2H201.208V16.2H192.44V20.2ZM199.208 18.2V47.832H203.208V18.2H199.208ZM199.208 47.832C199.208 49.9559 199.4 51.7882 199.902 53.1814L203.665 51.8266C203.399 51.0864 203.208 49.8041 203.208 47.832H199.208ZM199.937 53.2732C200.473 54.5577 201.3 55.7738 202.357 56.9274L205.306 54.2246C204.486 53.3302 203.948 52.4983 203.63 51.7348L199.937 53.2732ZM228.447 63V18.2H224.447V63H228.447ZM226.447 20.2H249.423V16.2H226.447V20.2ZM247.423 18.2V25.88H251.423V18.2H247.423ZM249.423 23.88H235.215V27.88H249.423V23.88ZM233.215 25.88V36.568H237.215V25.88H233.215ZM235.215 38.568H247.887V34.568H235.215V38.568ZM245.887 36.568V43.992H249.887V36.568H245.887ZM247.887 41.992H235.215V45.992H247.887V41.992ZM233.215 43.992V55.576H237.215V43.992H233.215ZM235.215 57.576H249.679V53.576H235.215V57.576ZM247.679 55.576V63H251.679V55.576H247.679ZM249.679 61H226.447V65H249.679V61ZM258.106 20.2H273.466V16.2H258.106V20.2ZM271.466 18.2V25.88H275.466V18.2H271.466ZM273.466 23.88H261.178V27.88H273.466V23.88ZM259.389 24.9855L259.197 25.3695L262.774 27.1585L262.966 26.7745L259.389 24.9855ZM259.232 27.2251L269.472 45.9131L272.979 43.9909L262.739 25.3029L259.232 27.2251ZM269.478 45.925C271.556 49.6573 272.362 52.122 272.362 53.528H276.362C276.362 51.0086 275.076 47.756 272.973 43.979L269.478 45.925ZM272.362 53.528C272.362 57.3575 271.123 59.8207 268.925 61.3627L271.222 64.6373C274.741 62.1686 276.362 58.3172 276.362 53.528H272.362ZM270.074 61H253.114V65H270.074V61ZM255.114 63V55.576H251.114V63H255.114ZM253.114 57.576H266.362V53.576H253.114V57.576ZM268.15 56.4704L268.342 56.0864L264.765 54.2976L264.573 54.6816L268.15 56.4704ZM268.301 54.2184L256.781 33.5464L253.286 35.4936L264.806 56.1656L268.301 54.2184ZM256.781 33.5466C255.167 30.6497 254.538 28.5831 254.538 27.224H250.538C250.538 29.6196 251.572 32.4169 253.286 35.4934L256.781 33.5466ZM254.538 27.224C254.538 25.2822 254.942 23.8071 255.632 22.6902C256.312 21.5867 257.357 20.6916 258.888 20.0405L257.323 16.3595C255.142 17.2871 253.403 18.6853 252.227 20.5898C251.061 22.4809 250.538 24.7285 250.538 27.224H254.538ZM286.054 23.88H276.39V27.88H286.054V23.88ZM278.39 25.88V18.2H274.39V25.88H278.39ZM276.39 20.2H304.422V16.2H276.39V20.2ZM302.422 18.2V25.88H306.422V18.2H302.422ZM304.422 23.88H294.758V27.88H304.422V23.88ZM292.758 25.88V63H296.758V25.88H292.758ZM294.758 61H286.054V65H294.758V61ZM288.054 63V25.88H284.054V63H288.054ZM99.25 4.875H127V0.875H99.25V4.875ZM127 4.875C131.376 4.875 135.573 6.61339 138.667 9.70774L141.496 6.87931C137.651 3.03481 132.437 0.875 127 0.875V4.875ZM138.667 9.70774C141.762 12.8021 143.5 16.9989 143.5 21.375H147.5C147.5 15.9381 145.34 10.7238 141.496 6.87931L138.667 9.70774ZM143.5 21.375V86.125H147.5V21.375H143.5ZM147.5 86.125C147.5 81.9147 145.827 77.8768 142.85 74.8997L140.022 77.7281C142.249 79.9551 143.5 82.9756 143.5 86.125H147.5ZM142.85 74.8997C139.873 71.9225 135.835 70.25 131.625 70.25V74.25C134.774 74.25 137.795 75.5011 140.022 77.7281L142.85 74.8997ZM131.625 70.25H99.25V74.25H131.625V70.25ZM101.25 72.25V2.875H97.25V72.25H101.25ZM191.75 0.875H164V4.875H191.75V0.875ZM164 0.875C158.563 0.875 153.349 3.03482 149.504 6.87931L152.333 9.70774C155.427 6.61339 159.624 4.875 164 4.875V0.875ZM149.504 6.87931C145.66 10.7238 143.5 15.9381 143.5 21.375L147.5 21.375C147.5 16.9989 149.238 12.8021 152.333 9.70774L149.504 6.87931ZM147.5 86.125C147.5 82.9756 148.751 79.9551 150.978 77.7281L148.15 74.8997C145.173 77.8768 143.5 81.9147 143.5 86.125H147.5ZM150.978 77.7281C153.205 75.5011 156.226 74.25 159.375 74.25V70.25C155.165 70.25 151.127 71.9225 148.15 74.8997L150.978 77.7281ZM159.375 74.25H191.75V70.25H159.375V74.25ZM193.75 72.25V2.875H189.75V72.25H193.75Z" fill="#00BCFF"/>
</svg>
